<svg xmlns="http://www.w3.org/2000/svg" width="20" height="20" viewBox="0 0 20 20">
    <g fill="none" fill-rule="evenodd" transform="translate(-2 -2)">
        <path stroke="#4D4D4F" d="M13.011 5.062l4.008 1.302-4.596 3.857-6.674-4.843L8.047 3.45l1.936.629"/>
        <circle cx="11.5" cy="4.5" r="1" fill="#4D4D4F"/>
        <path stroke="#4D4D4F" d="M20.134 17.09L18.66 7.772l-4.528 3.936 3.74 7.35z"/>
        <path fill="#FFF" stroke="#4D4D4F" d="M20.543 4.75a2.585 2.585 0 0 1-.477 3.766l-8.583 6.134.568 2.333-2.54 2.132-1.669-3.708-3.36-2.286 2.54-2.131 2.2.964 7.53-7.387a2.585 2.585 0 0 1 3.791.184z"/>
        <path stroke="#4D4D4F" stroke-linecap="square" d="M5.727 17.183l-.847.71M5.226 8.85l-2.54 2.13M13.847 19.123l-2.54 2.132"/>
    </g>
</svg>
