<svg xmlns="http://www.w3.org/2000/svg" width="13" height="22" viewBox="0 0 13 22">
    <g fill="none" fill-rule="evenodd">
        <path d="M-6-1h24v24H-6z"/>
        <g transform="translate(1 1)">
            <path stroke="#4D4D4F" stroke-width=".941" d="M11 10.032v8.894A1.08 1.08 0 0 1 9.915 20h-8.83A1.08 1.08 0 0 1 0 18.926V14.43v-.202c0-3.01 2.473-5.457 5.513-5.457 1.844 0 3.344-1.485 3.344-3.311 0-1.826-1.5-3.31-3.344-3.31-1.844 0-3.344 1.484-3.344 3.31a1.08 1.08 0 0 1-1.084 1.074A1.08 1.08 0 0 1 0 5.459C0 2.448 2.472 0 5.513 0 8.553 0 11 2.449 11 5.458v1.558"/>
            <circle cx="11" cy="8.5" r="1" fill="#4D4D4F"/>
            <path stroke="#4D4D4F" stroke-linejoin="round" d="M4.176 11.378l3.55-1.014A1 1 0 0 1 9 11.326V18H2v-3.737a3 3 0 0 1 2.176-2.885z"/>
        </g>
    </g>
</svg>
