<svg xmlns="http://www.w3.org/2000/svg" width="32" height="32" viewBox="0 0 32 32">
    <g fill="none" fill-rule="evenodd">
        <rect width="32" height="32" fill="#0071A1" rx="3"/>
        <path d="M8 8h16v16H8z"/>
        <g fill="#FFF">
            <path d="M23.857 23.828H20.57v-5.142c0-1.226-.02-2.803-1.707-2.803-1.71 0-1.971 1.336-1.971 2.716v5.229H13.61V13.255h3.15v1.446h.045c.438-.831 1.51-1.708 3.108-1.708 3.328 0 3.943 2.19 3.943 5.037v5.798zM9.906 11.811a1.905 1.905 0 1 1-.003-3.81 1.905 1.905 0 0 1 .003 3.81zM8.26 23.828h3.29V13.255H8.26z"/>
        </g>
    </g>
</svg>
