<svg xmlns="http://www.w3.org/2000/svg" width="32" height="32" viewBox="0 0 32 32">
    <g fill="none" fill-rule="evenodd">
        <rect width="32" height="32" fill="#55ACEE" rx="3"/>
        <path d="M8 8h16v16H8z"/>
        <path fill="#FFF" d="M22.326 13.724c-.066 1.264-.433 2.512-.996 3.65-1.661 3.293-4.856 5.118-8.528 4.926A9.11 9.11 0 0 1 8 20.62c.24.032.5.066.74.078a6.391 6.391 0 0 0 4.025-1.157c-1.343-.09-2.5-1.057-2.854-2.363a3.06 3.06 0 0 0 1.448.016c-1.47-.38-2.505-1.742-2.386-3.245l.002-.04c.43.264.904.43 1.424.477a3.169 3.169 0 0 1-1.286-2.723c.03-.562.2-1.117.506-1.583a9.146 9.146 0 0 0 6.387 3.675 2.959 2.959 0 0 1-.042-.727 3.19 3.19 0 0 1 3.358-3.024 3.18 3.18 0 0 1 2.255 1.125 6.515 6.515 0 0 0 2.067-.657 3.193 3.193 0 0 1-1.496 1.673A5.755 5.755 0 0 0 24 11.739a6.195 6.195 0 0 1-1.672 1.562c.013.142.006.282-.002.423z"/>
    </g>
</svg>
