<svg xmlns="http://www.w3.org/2000/svg" width="32" height="32" viewBox="0 0 32 32">
    <g fill="none" fill-rule="evenodd">
        <rect width="32" height="32" fill="#D50000" rx="3"/>
        <path d="M8 8h16v16H8z"/>
        <path fill="#FFFFFE" d="M14.364 18.821V14.18l4.181 2.321-4.181 2.321zm9.302-6.103a1.986 1.986 0 0 0-1.415-1.39C21.003 11 16 11 16 11s-5.003 0-6.251.328c-.688.181-1.23.714-1.415 1.39C8 13.943 8 16.5 8 16.5s0 2.557.334 3.782a1.986 1.986 0 0 0 1.415 1.39C10.997 22 16 22 16 22s5.003 0 6.251-.328a1.986 1.986 0 0 0 1.415-1.39C24 19.057 24 16.5 24 16.5s0-2.557-.334-3.782z"/>
    </g>
</svg>
